<svg width="24" height="24" viewBox="0 0 24 24" fill="none" xmlns="http://www.w3.org/2000/svg">
<g id="WNCG">
<g id="NCG">
<circle id="Ellipse 11" cx="12.0177" cy="12.0156" r="7.46477" fill="white"/>
<path id="Vector" d="M7.86256 15.8207L8.2358 7.91437H10.6431L14.0377 13.3361L14.2659 7.15466L16.6435 6.10747C15.3665 5.09946 13.7539 4.49805 12.0005 4.49805C7.85833 4.49805 4.50024 7.85613 4.50024 11.9983C4.50024 13.739 5.09372 15.3415 6.08902 16.6143L7.86256 15.8207Z" fill="#00B1B1"/>
<path id="Vector_2" d="M17.9036 7.37162L16.184 8.14086L15.8108 16.0472H13.4041L13.3993 16.0398L10.0089 10.6254L9.78073 16.8069L7.34595 17.8789C8.62502 18.8922 10.2419 19.4979 12 19.4979C16.1422 19.4979 19.5003 16.1398 19.5003 11.9977C19.5003 10.2522 18.9036 8.6454 17.9036 7.37109V7.37162Z" fill="#00B1B1"/>
</g>
<path id="Union" fill-rule="evenodd" clip-rule="evenodd" d="M12 0C5.36664 0 0 5.3785 0 12C0 18.6215 5.36664 24 12 24C18.6334 24 24 18.6215 24 12C24 5.3785 18.6334 0 12 0ZM1.84096 12C1.84096 6.3771 6.39518 1.82941 12 1.82941C17.6048 1.82941 22.159 6.3771 22.159 12C22.159 17.6229 17.6048 22.1706 12 22.1706C6.39518 22.1706 1.84096 17.6229 1.84096 12Z" fill="#00B1B1"/>
</g>
</svg>
